<mxfile host="app.diagrams.net" modified="2023-05-03T17:04:08.553Z" agent="Mozilla/5.0 (Windows NT 10.0; Win64; x64) AppleWebKit/537.36 (KHTML, like Gecko) Chrome/112.0.0.0 Safari/537.36 Edg/112.0.1722.64" etag="Yz5hmmEiXS8h_puuIUD5" version="21.2.3" type="device">
  <diagram name="Page-1" id="R2PDrxdQ1mhhKWqaIksi">
    <mxGraphModel dx="1169" dy="646" grid="1" gridSize="10" guides="1" tooltips="1" connect="1" arrows="1" fold="1" page="1" pageScale="1" pageWidth="827" pageHeight="1169" math="0" shadow="0">
      <root>
        <mxCell id="0" />
        <mxCell id="1" parent="0" />
        <mxCell id="FfAWD8UeeB69dAOk08Cy-70" value="" style="endArrow=none;html=1;rounded=0;strokeWidth=2;" edge="1" parent="1">
          <mxGeometry width="50" height="50" relative="1" as="geometry">
            <mxPoint x="660" y="459.65999999999997" as="sourcePoint" />
            <mxPoint x="697.5" y="459.65999999999997" as="targetPoint" />
          </mxGeometry>
        </mxCell>
        <mxCell id="FfAWD8UeeB69dAOk08Cy-68" value="" style="endArrow=none;html=1;rounded=0;strokeWidth=2;entryX=-0.007;entryY=0.39;entryDx=0;entryDy=0;entryPerimeter=0;" edge="1" parent="1">
          <mxGeometry width="50" height="50" relative="1" as="geometry">
            <mxPoint x="530" y="455" as="sourcePoint" />
            <mxPoint x="629.79" y="455.5999999999999" as="targetPoint" />
          </mxGeometry>
        </mxCell>
        <mxCell id="FfAWD8UeeB69dAOk08Cy-56" value="" style="endArrow=none;html=1;rounded=0;strokeWidth=2;exitX=1;exitY=0.5;exitDx=0;exitDy=0;exitPerimeter=0;" edge="1" parent="1" source="FfAWD8UeeB69dAOk08Cy-46">
          <mxGeometry width="50" height="50" relative="1" as="geometry">
            <mxPoint x="615" y="289.30999999999995" as="sourcePoint" />
            <mxPoint x="630" y="290" as="targetPoint" />
          </mxGeometry>
        </mxCell>
        <mxCell id="FfAWD8UeeB69dAOk08Cy-53" value="" style="endArrow=none;html=1;rounded=0;strokeWidth=2;" edge="1" parent="1">
          <mxGeometry width="50" height="50" relative="1" as="geometry">
            <mxPoint x="550" y="290" as="sourcePoint" />
            <mxPoint x="580" y="290" as="targetPoint" />
          </mxGeometry>
        </mxCell>
        <mxCell id="FfAWD8UeeB69dAOk08Cy-54" value="" style="endArrow=none;html=1;rounded=0;strokeWidth=2;" edge="1" parent="1">
          <mxGeometry width="50" height="50" relative="1" as="geometry">
            <mxPoint x="550" y="279.66" as="sourcePoint" />
            <mxPoint x="580" y="280" as="targetPoint" />
          </mxGeometry>
        </mxCell>
        <mxCell id="FfAWD8UeeB69dAOk08Cy-52" value="" style="endArrow=none;html=1;rounded=0;strokeWidth=2;" edge="1" parent="1">
          <mxGeometry width="50" height="50" relative="1" as="geometry">
            <mxPoint x="550" y="299.65999999999997" as="sourcePoint" />
            <mxPoint x="580" y="300" as="targetPoint" />
          </mxGeometry>
        </mxCell>
        <mxCell id="FfAWD8UeeB69dAOk08Cy-1" value="" style="rounded=0;whiteSpace=wrap;html=1;" vertex="1" parent="1">
          <mxGeometry x="100" y="200" width="80" height="120" as="geometry" />
        </mxCell>
        <mxCell id="FfAWD8UeeB69dAOk08Cy-2" value="" style="rounded=0;whiteSpace=wrap;html=1;" vertex="1" parent="1">
          <mxGeometry x="400" y="220" width="80" height="120" as="geometry" />
        </mxCell>
        <mxCell id="FfAWD8UeeB69dAOk08Cy-3" value="" style="rounded=0;whiteSpace=wrap;html=1;" vertex="1" parent="1">
          <mxGeometry x="350" y="200" width="80" height="120" as="geometry" />
        </mxCell>
        <mxCell id="FfAWD8UeeB69dAOk08Cy-4" value="" style="rounded=0;whiteSpace=wrap;html=1;" vertex="1" parent="1">
          <mxGeometry x="620" y="200" width="80" height="120" as="geometry" />
        </mxCell>
        <mxCell id="FfAWD8UeeB69dAOk08Cy-5" value="" style="rounded=0;whiteSpace=wrap;html=1;" vertex="1" parent="1">
          <mxGeometry x="680" y="360" width="80" height="120" as="geometry" />
        </mxCell>
        <mxCell id="FfAWD8UeeB69dAOk08Cy-6" value="" style="strokeWidth=2;html=1;shape=mxgraph.flowchart.annotation_1;align=left;pointerEvents=1;" vertex="1" parent="1">
          <mxGeometry x="30" y="80" width="20" height="160" as="geometry" />
        </mxCell>
        <mxCell id="FfAWD8UeeB69dAOk08Cy-8" value="" style="endArrow=none;html=1;rounded=0;strokeWidth=2;" edge="1" parent="1">
          <mxGeometry width="50" height="50" relative="1" as="geometry">
            <mxPoint x="10" y="120" as="sourcePoint" />
            <mxPoint x="760" y="120" as="targetPoint" />
          </mxGeometry>
        </mxCell>
        <mxCell id="FfAWD8UeeB69dAOk08Cy-10" value="" style="endArrow=none;html=1;rounded=0;exitX=1;exitY=0;exitDx=0;exitDy=0;exitPerimeter=0;strokeWidth=2;" edge="1" parent="1">
          <mxGeometry width="50" height="50" relative="1" as="geometry">
            <mxPoint x="10" y="80" as="sourcePoint" />
            <mxPoint x="760" y="80" as="targetPoint" />
          </mxGeometry>
        </mxCell>
        <mxCell id="FfAWD8UeeB69dAOk08Cy-12" value="" style="endArrow=none;html=1;rounded=0;entryX=0.5;entryY=0;entryDx=0;entryDy=0;" edge="1" parent="1" target="FfAWD8UeeB69dAOk08Cy-3">
          <mxGeometry width="50" height="50" relative="1" as="geometry">
            <mxPoint x="390" y="120" as="sourcePoint" />
            <mxPoint x="290" y="190" as="targetPoint" />
          </mxGeometry>
        </mxCell>
        <mxCell id="FfAWD8UeeB69dAOk08Cy-13" value="" style="endArrow=none;html=1;rounded=0;entryX=0.5;entryY=0;entryDx=0;entryDy=0;" edge="1" parent="1">
          <mxGeometry width="50" height="50" relative="1" as="geometry">
            <mxPoint x="450" y="120" as="sourcePoint" />
            <mxPoint x="450" y="220" as="targetPoint" />
          </mxGeometry>
        </mxCell>
        <mxCell id="FfAWD8UeeB69dAOk08Cy-15" value="" style="strokeWidth=2;html=1;shape=mxgraph.flowchart.annotation_1;align=left;pointerEvents=1;" vertex="1" parent="1">
          <mxGeometry x="550" y="80" width="20" height="130" as="geometry" />
        </mxCell>
        <mxCell id="FfAWD8UeeB69dAOk08Cy-16" value="" style="strokeWidth=2;html=1;shape=mxgraph.flowchart.annotation_1;align=left;pointerEvents=1;" vertex="1" parent="1">
          <mxGeometry x="240" y="80" width="20" height="220" as="geometry" />
        </mxCell>
        <mxCell id="FfAWD8UeeB69dAOk08Cy-17" value="" style="strokeWidth=2;html=1;shape=mxgraph.flowchart.annotation_1;align=left;pointerEvents=1;" vertex="1" parent="1">
          <mxGeometry x="530" y="80" width="20" height="394" as="geometry" />
        </mxCell>
        <mxCell id="FfAWD8UeeB69dAOk08Cy-18" value="" style="endArrow=none;html=1;rounded=0;strokeWidth=2;entryX=-0.023;entryY=0.331;entryDx=0;entryDy=0;entryPerimeter=0;exitX=-0.01;exitY=0.808;exitDx=0;exitDy=0;exitPerimeter=0;" edge="1" parent="1" source="FfAWD8UeeB69dAOk08Cy-17" target="FfAWD8UeeB69dAOk08Cy-5">
          <mxGeometry width="50" height="50" relative="1" as="geometry">
            <mxPoint x="570" y="400" as="sourcePoint" />
            <mxPoint x="640" y="400" as="targetPoint" />
          </mxGeometry>
        </mxCell>
        <mxCell id="FfAWD8UeeB69dAOk08Cy-19" value="" style="endArrow=none;html=1;rounded=0;entryX=0.5;entryY=0;entryDx=0;entryDy=0;" edge="1" parent="1">
          <mxGeometry width="50" height="50" relative="1" as="geometry">
            <mxPoint x="659" y="120" as="sourcePoint" />
            <mxPoint x="659.29" y="200" as="targetPoint" />
          </mxGeometry>
        </mxCell>
        <mxCell id="FfAWD8UeeB69dAOk08Cy-20" value="" style="endArrow=none;html=1;rounded=0;entryX=0.5;entryY=0;entryDx=0;entryDy=0;" edge="1" parent="1" target="FfAWD8UeeB69dAOk08Cy-5">
          <mxGeometry width="50" height="50" relative="1" as="geometry">
            <mxPoint x="719.29" y="120" as="sourcePoint" />
            <mxPoint x="719.29" y="220" as="targetPoint" />
          </mxGeometry>
        </mxCell>
        <mxCell id="FfAWD8UeeB69dAOk08Cy-21" value="" style="endArrow=none;html=1;rounded=0;" edge="1" parent="1">
          <mxGeometry width="50" height="50" relative="1" as="geometry">
            <mxPoint x="140.29000000000002" y="120" as="sourcePoint" />
            <mxPoint x="140" y="200" as="targetPoint" />
          </mxGeometry>
        </mxCell>
        <mxCell id="FfAWD8UeeB69dAOk08Cy-23" value="" style="endArrow=none;html=1;rounded=0;strokeWidth=2;exitX=0.5;exitY=0;exitDx=0;exitDy=0;exitPerimeter=0;" edge="1" parent="1" source="FfAWD8UeeB69dAOk08Cy-27">
          <mxGeometry width="50" height="50" relative="1" as="geometry">
            <mxPoint x="60" y="240" as="sourcePoint" />
            <mxPoint x="100" y="240" as="targetPoint" />
          </mxGeometry>
        </mxCell>
        <mxCell id="FfAWD8UeeB69dAOk08Cy-26" value="" style="endArrow=none;html=1;rounded=0;strokeWidth=2;" edge="1" parent="1" source="FfAWD8UeeB69dAOk08Cy-24">
          <mxGeometry width="50" height="50" relative="1" as="geometry">
            <mxPoint x="80" y="279.29" as="sourcePoint" />
            <mxPoint x="100" y="279" as="targetPoint" />
            <Array as="points" />
          </mxGeometry>
        </mxCell>
        <mxCell id="FfAWD8UeeB69dAOk08Cy-27" value="" style="strokeWidth=2;html=1;shape=mxgraph.flowchart.annotation_1;align=left;pointerEvents=1;" vertex="1" parent="1">
          <mxGeometry x="30" y="240" width="20" height="50" as="geometry" />
        </mxCell>
        <mxCell id="FfAWD8UeeB69dAOk08Cy-28" value="" style="endArrow=none;html=1;rounded=0;strokeWidth=2;exitX=0.121;exitY=0.737;exitDx=0;exitDy=0;exitPerimeter=0;" edge="1" parent="1" source="FfAWD8UeeB69dAOk08Cy-24">
          <mxGeometry width="50" height="50" relative="1" as="geometry">
            <mxPoint x="60" y="430" as="sourcePoint" />
            <mxPoint x="70" y="277" as="targetPoint" />
            <Array as="points" />
          </mxGeometry>
        </mxCell>
        <mxCell id="FfAWD8UeeB69dAOk08Cy-30" value="" style="endArrow=none;html=1;rounded=0;strokeWidth=2;" edge="1" parent="1" source="FfAWD8UeeB69dAOk08Cy-34" target="FfAWD8UeeB69dAOk08Cy-24">
          <mxGeometry width="50" height="50" relative="1" as="geometry">
            <mxPoint x="80" y="279.29" as="sourcePoint" />
            <mxPoint x="100" y="279" as="targetPoint" />
            <Array as="points" />
          </mxGeometry>
        </mxCell>
        <mxCell id="FfAWD8UeeB69dAOk08Cy-31" value="" style="endArrow=none;html=1;rounded=0;strokeWidth=2;exitX=-0.005;exitY=0.695;exitDx=0;exitDy=0;exitPerimeter=0;entryX=0;entryY=0.5;entryDx=0;entryDy=0;" edge="1" parent="1" source="FfAWD8UeeB69dAOk08Cy-27" target="FfAWD8UeeB69dAOk08Cy-33">
          <mxGeometry width="50" height="50" relative="1" as="geometry">
            <mxPoint x="42" y="277" as="sourcePoint" />
            <mxPoint x="70" y="277" as="targetPoint" />
            <Array as="points" />
          </mxGeometry>
        </mxCell>
        <mxCell id="FfAWD8UeeB69dAOk08Cy-24" value="" style="shape=or;whiteSpace=wrap;html=1;" vertex="1" parent="1">
          <mxGeometry x="50" y="260" width="30" height="40" as="geometry" />
        </mxCell>
        <mxCell id="FfAWD8UeeB69dAOk08Cy-32" value="" style="ellipse;whiteSpace=wrap;html=1;aspect=fixed;" vertex="1" parent="1">
          <mxGeometry x="45" y="285" width="10" height="10" as="geometry" />
        </mxCell>
        <mxCell id="FfAWD8UeeB69dAOk08Cy-33" value="" style="ellipse;whiteSpace=wrap;html=1;aspect=fixed;" vertex="1" parent="1">
          <mxGeometry x="45" y="270" width="10" height="10" as="geometry" />
        </mxCell>
        <mxCell id="FfAWD8UeeB69dAOk08Cy-35" value="" style="endArrow=none;html=1;rounded=0;strokeWidth=2;" edge="1" parent="1" target="FfAWD8UeeB69dAOk08Cy-34">
          <mxGeometry width="50" height="50" relative="1" as="geometry">
            <mxPoint x="80" y="279.29" as="sourcePoint" />
            <mxPoint x="80" y="279" as="targetPoint" />
            <Array as="points" />
          </mxGeometry>
        </mxCell>
        <mxCell id="FfAWD8UeeB69dAOk08Cy-34" value="" style="ellipse;whiteSpace=wrap;html=1;aspect=fixed;" vertex="1" parent="1">
          <mxGeometry x="80" y="275" width="10" height="10" as="geometry" />
        </mxCell>
        <mxCell id="FfAWD8UeeB69dAOk08Cy-37" value="" style="shape=or;whiteSpace=wrap;html=1;" vertex="1" parent="1">
          <mxGeometry x="260" y="275" width="30" height="40" as="geometry" />
        </mxCell>
        <mxCell id="FfAWD8UeeB69dAOk08Cy-38" value="" style="endArrow=none;html=1;rounded=0;strokeWidth=2;" edge="1" parent="1">
          <mxGeometry width="50" height="50" relative="1" as="geometry">
            <mxPoint x="240" y="280" as="sourcePoint" />
            <mxPoint x="260" y="280" as="targetPoint" />
            <Array as="points">
              <mxPoint x="250" y="280" />
            </Array>
          </mxGeometry>
        </mxCell>
        <mxCell id="FfAWD8UeeB69dAOk08Cy-39" value="" style="ellipse;whiteSpace=wrap;html=1;aspect=fixed;" vertex="1" parent="1">
          <mxGeometry x="255" y="295" width="10" height="10" as="geometry" />
        </mxCell>
        <mxCell id="FfAWD8UeeB69dAOk08Cy-43" value="" style="endArrow=none;html=1;rounded=0;strokeWidth=2;exitX=1;exitY=0.5;exitDx=0;exitDy=0;exitPerimeter=0;" edge="1" parent="1" source="FfAWD8UeeB69dAOk08Cy-37">
          <mxGeometry width="50" height="50" relative="1" as="geometry">
            <mxPoint x="300" y="294.6" as="sourcePoint" />
            <mxPoint x="320" y="294.6" as="targetPoint" />
            <Array as="points">
              <mxPoint x="310" y="294.6" />
              <mxPoint x="350" y="295" />
            </Array>
          </mxGeometry>
        </mxCell>
        <mxCell id="FfAWD8UeeB69dAOk08Cy-45" value="" style="endArrow=none;html=1;rounded=0;strokeWidth=2;exitX=0.5;exitY=0;exitDx=0;exitDy=0;exitPerimeter=0;entryX=-0.011;entryY=0.331;entryDx=0;entryDy=0;entryPerimeter=0;" edge="1" parent="1" target="FfAWD8UeeB69dAOk08Cy-3">
          <mxGeometry width="50" height="50" relative="1" as="geometry">
            <mxPoint x="240" y="239.31" as="sourcePoint" />
            <mxPoint x="300" y="239.31" as="targetPoint" />
          </mxGeometry>
        </mxCell>
        <mxCell id="FfAWD8UeeB69dAOk08Cy-46" value="" style="shape=or;whiteSpace=wrap;html=1;" vertex="1" parent="1">
          <mxGeometry x="575" y="270" width="30" height="40" as="geometry" />
        </mxCell>
        <mxCell id="FfAWD8UeeB69dAOk08Cy-49" value="" style="endArrow=none;html=1;rounded=0;strokeWidth=2;" edge="1" parent="1">
          <mxGeometry width="50" height="50" relative="1" as="geometry">
            <mxPoint x="570" y="210" as="sourcePoint" />
            <mxPoint x="620" y="210" as="targetPoint" />
          </mxGeometry>
        </mxCell>
        <mxCell id="FfAWD8UeeB69dAOk08Cy-50" value="" style="endArrow=none;html=1;rounded=0;strokeWidth=2;entryX=0;entryY=1;entryDx=0;entryDy=0;entryPerimeter=0;" edge="1" parent="1" target="FfAWD8UeeB69dAOk08Cy-15">
          <mxGeometry width="50" height="50" relative="1" as="geometry">
            <mxPoint x="550" y="300" as="sourcePoint" />
            <mxPoint x="668" y="340" as="targetPoint" />
          </mxGeometry>
        </mxCell>
        <mxCell id="FfAWD8UeeB69dAOk08Cy-51" value="" style="endArrow=none;html=1;rounded=0;strokeWidth=2;" edge="1" parent="1">
          <mxGeometry width="50" height="50" relative="1" as="geometry">
            <mxPoint x="550" y="239.31" as="sourcePoint" />
            <mxPoint x="620" y="239" as="targetPoint" />
          </mxGeometry>
        </mxCell>
        <mxCell id="FfAWD8UeeB69dAOk08Cy-55" value="" style="ellipse;whiteSpace=wrap;html=1;aspect=fixed;" vertex="1" parent="1">
          <mxGeometry x="615" y="235" width="10" height="10" as="geometry" />
        </mxCell>
        <mxCell id="FfAWD8UeeB69dAOk08Cy-61" value="" style="endArrow=none;html=1;rounded=0;strokeWidth=2;" edge="1" parent="1">
          <mxGeometry width="50" height="50" relative="1" as="geometry">
            <mxPoint x="531" y="465" as="sourcePoint" />
            <mxPoint x="629" y="465" as="targetPoint" />
          </mxGeometry>
        </mxCell>
        <mxCell id="FfAWD8UeeB69dAOk08Cy-62" value="" style="endArrow=none;html=1;rounded=0;strokeWidth=2;" edge="1" parent="1">
          <mxGeometry width="50" height="50" relative="1" as="geometry">
            <mxPoint x="530" y="446" as="sourcePoint" />
            <mxPoint x="630" y="446" as="targetPoint" />
          </mxGeometry>
        </mxCell>
        <mxCell id="FfAWD8UeeB69dAOk08Cy-63" value="" style="endArrow=none;html=1;rounded=0;strokeWidth=2;exitX=0.5;exitY=1;exitDx=0;exitDy=0;exitPerimeter=0;" edge="1" parent="1" source="FfAWD8UeeB69dAOk08Cy-17">
          <mxGeometry width="50" height="50" relative="1" as="geometry">
            <mxPoint x="605" y="474" as="sourcePoint" />
            <mxPoint x="635" y="474" as="targetPoint" />
          </mxGeometry>
        </mxCell>
        <mxCell id="FfAWD8UeeB69dAOk08Cy-64" value="" style="shape=or;whiteSpace=wrap;html=1;" vertex="1" parent="1">
          <mxGeometry x="630" y="440" width="30" height="40" as="geometry" />
        </mxCell>
        <mxCell id="FfAWD8UeeB69dAOk08Cy-65" value="" style="endArrow=none;html=1;rounded=0;strokeWidth=2;exitX=0.059;exitY=0.94;exitDx=0;exitDy=0;exitPerimeter=0;entryX=0;entryY=0.5;entryDx=0;entryDy=0;" edge="1" parent="1" target="FfAWD8UeeB69dAOk08Cy-67">
          <mxGeometry width="50" height="50" relative="1" as="geometry">
            <mxPoint x="530" y="419.66" as="sourcePoint" />
            <mxPoint x="660" y="419.66" as="targetPoint" />
          </mxGeometry>
        </mxCell>
        <mxCell id="FfAWD8UeeB69dAOk08Cy-67" value="" style="ellipse;whiteSpace=wrap;html=1;aspect=fixed;" vertex="1" parent="1">
          <mxGeometry x="675" y="415" width="10" height="10" as="geometry" />
        </mxCell>
      </root>
    </mxGraphModel>
  </diagram>
</mxfile>
